<svg width="106" height="38" xmlns="http://www.w3.org/2000/svg"><g fill="none" fill-rule="evenodd"><path d="M2 37h35V2H2v35zm30.787-5.595h-3.975V14.38h3.975v17.025zm-1.97-24.549c1.417 0 2.454.936 2.454 2.289 0 1.317-1.037 2.254-2.455 2.254-1.417 0-2.454-.937-2.454-2.254 0-1.353 1.037-2.289 2.454-2.289zM6.41 8.312h4.01V21.35c0 4.923 1.833 6.553 4.563 6.553 2.765 0 4.701-1.63 4.701-6.553V8.312h3.837v12.726c0 7.455-3.284 10.367-8.538 10.367-5.22 0-8.573-2.912-8.573-10.367V8.312zM70 26.025V22c-4.508.622-6 1.903-6 3.695 0 1.61.983 2.305 2.373 2.305 1.356 0 2.407-.732 3.627-1.975z"/><path d="M106 30V19.73c0-4.136-1.25-6.73-5.096-6.73-2.24 0-3.825 1.394-5.195 2.694-1.1 1.191-2.348 2.538-3.709 4.422v2.788c1.01-1.158 2.492-2.868 3.843-4.342 1.37-1.334 2.305-2.034 3.742-2.034 1.804 0 2.572 1 2.572 3.702v10.78H106V30zM95.916 14.734l.024-.591.06-1.432V7h-4v12c.964-1.233 2.6-3.02 3.916-4.266z" fill="#2573B2" fill-rule="nonzero"/><path d="M92 31h4V21c-1.078 1.114-2.977 3.102-4 4.254V31zM38 36.862V1.138A1.14 1.14 0 0 0 36.86 0H1.14C.51 0 0 .51 0 1.138v35.724C0 37.49.51 38 1.14 38h35.72c.63 0 1.14-.51 1.14-1.138zm-1.516-.345h-35V1.532h35v34.985z" fill="#2573B2" fill-rule="nonzero"/><path d="M14.517 31C19.737 31 23 28.099 23 20.674V8h-3.812v12.985c0 4.904-1.923 6.527-4.67 6.527-2.714 0-4.534-1.623-4.534-6.527V8H6v12.674C6 28.099 9.331 31 14.517 31zM30.5 11c1.444 0 2.5-1.03 2.5-2.48C33 7.03 31.943 6 30.5 6 29.056 6 28 7.03 28 8.52 28 9.97 29.057 11 30.5 11zM28 14h4v17h-4zM46 8l-.138-1L43 7.066V12c1.113-1.695 2.148-3.18 3-4zM46.859 23.005c3.29 3.27 10.449 2.115 11.082-6.09.697-9.026-4.998-10.556-7.968-9.713-1.076.306-2.132 1.054-3.114 1.999-1.531 1.471-2.885 3.42-3.859 4.91v2.981c.79-1.304 2.028-3.167 3.859-4.896.358-.34.74-.673 1.145-.996 2.818-2.249 6.382-.69 5.969 5.122-.393 5.522-4.237 6.43-7.114 3.727v-6.556L43 18.88V31h3.859v-7.995zM70.59 28.821h.096l.29 1.783H74v-9.606C74 16.475 72.07 14 68.111 14c-2.51 0-4.73.99-6.467 2.112l1.351 2.542c1.384-.858 2.864-1.584 4.44-1.584 2.125 0 2.832 1.452 2.865 3.169-6.468.726-9.3 2.541-9.3 6.007C61 29.086 62.93 31 65.698 31c1.866 0 3.475-.957 4.891-2.179zm-5.986-2.871c0-1.618 1.416-2.773 5.696-3.334v3.63c-1.159 1.123-2.156 1.783-3.443 1.783-1.32 0-2.253-.627-2.253-2.08zM88 30.378l-.675-2.935c-.473.207-1.147.38-1.72.38-1.587 0-2.329-.967-2.329-2.97V16.77h4.218v-3.143h-4.218V9h-3.24l-.472 4.628-2.564.173v2.97h2.362v8.082c0 3.66 1.417 6.147 5.263 6.147 1.317 0 2.464-.311 3.375-.622z" fill="#2573B2" fill-rule="nonzero"/></g></svg>
